<svg xmlns="http://www.w3.org/2000/svg" width="2400" height="1200" viewBox="0 0 2400 1200">
  <defs>
    <linearGradient id="sky" x1="0" y1="0" x2="0" y2="1">
      <stop offset="0" stop-color="#f8c773"/>
      <stop offset="0.42" stop-color="#f3b45a"/>
      <stop offset="1" stop-color="#2f7f84"/>
    </linearGradient>
    <linearGradient id="water" x1="0" y1="0" x2="1" y2="1">
      <stop offset="0" stop-color="#2d827f"/>
      <stop offset="0.45" stop-color="#1d615e"/>
      <stop offset="1" stop-color="#0e342b"/>
    </linearGradient>
    <radialGradient id="sun" cx="22%" cy="25%" r="34%">
      <stop offset="0" stop-color="#fff0aa" stop-opacity="0.95"/>
      <stop offset="0.32" stop-color="#ffd26e" stop-opacity="0.55"/>
      <stop offset="1" stop-color="#ffd26e" stop-opacity="0"/>
    </radialGradient>
    <filter id="soft" x="-20%" y="-20%" width="140%" height="140%">
      <feGaussianBlur stdDeviation="18"/>
    </filter>
  </defs>

  <rect width="2400" height="1200" fill="url(#sky)"/>
  <rect width="2400" height="1200" fill="url(#sun)"/>
  <path d="M0 520 C260 470 400 560 640 518 C950 462 1140 530 1390 500 C1710 462 1960 510 2400 470 L2400 1200 L0 1200 Z" fill="url(#water)"/>
  <path d="M0 582 C280 548 560 618 820 574 C1190 512 1480 604 1780 552 C2030 510 2200 542 2400 518" fill="none" stroke="#f7d184" stroke-width="6" opacity="0.36"/>
  <path d="M0 670 C360 640 580 705 880 662 C1190 618 1480 695 1850 642 C2070 610 2220 632 2400 606" fill="none" stroke="#f5e1a2" stroke-width="3" opacity="0.24"/>
  <g opacity="0.35" stroke="#f6d98c" stroke-width="2" fill="none">
    <path d="M180 760 C260 744 330 744 410 760"/>
    <path d="M640 818 C760 792 890 792 1010 816"/>
    <path d="M1240 720 C1340 700 1450 700 1570 720"/>
    <path d="M1690 858 C1810 832 1960 834 2100 858"/>
  </g>

  <g fill="#122e27">
    <path d="M1810 484 C1880 430 1990 426 2078 492 L2062 542 C1978 500 1898 500 1824 544 Z"/>
    <path d="M1862 552 L2052 552 L2022 610 L1818 610 Z"/>
    <rect x="1928" y="415" width="20" height="140" rx="8"/>
    <path d="M1938 424 C1878 390 1832 340 1808 270" fill="none" stroke="#122e27" stroke-width="9" stroke-linecap="round"/>
    <path d="M1808 270 C1770 262 1752 250 1736 236" fill="none" stroke="#122e27" stroke-width="5" stroke-linecap="round"/>
  </g>

  <g transform="translate(1870 420)">
    <circle cx="38" cy="18" r="18" fill="#2b1c13"/>
    <path d="M22 38 C54 24 86 40 100 80 L78 100 C64 72 44 68 20 84 Z" fill="#cf7836"/>
    <path d="M80 72 L124 112" stroke="#2b1c13" stroke-width="11" stroke-linecap="round"/>
  </g>

  <g opacity="0.8">
    <path d="M2120 470 L2400 430 L2400 560 L2110 575 Z" fill="#7b5737"/>
    <path d="M2140 496 L2400 462" stroke="#e6b36b" stroke-width="8" opacity="0.45"/>
    <path d="M2148 540 L2400 510" stroke="#2b1c13" stroke-width="6" opacity="0.28"/>
  </g>

  <g opacity="0.88">
    <path d="M0 520 C120 430 210 414 320 492 C430 400 540 440 628 512 C720 462 790 475 850 528 L850 1200 L0 1200 Z" fill="#173b30"/>
    <path d="M95 510 C110 430 126 350 142 270" stroke="#728d43" stroke-width="12" stroke-linecap="round"/>
    <path d="M150 520 C168 430 184 330 198 250" stroke="#9cae58" stroke-width="9" stroke-linecap="round"/>
    <path d="M250 520 C270 420 290 350 312 270" stroke="#6f873d" stroke-width="10" stroke-linecap="round"/>
    <path d="M370 535 C392 440 424 350 456 270" stroke="#97a952" stroke-width="8" stroke-linecap="round"/>
  </g>

  <g filter="url(#soft)" opacity="0.32">
    <ellipse cx="1800" cy="675" rx="360" ry="54" fill="#fff3b5"/>
    <ellipse cx="540" cy="620" rx="280" ry="42" fill="#fff3b5"/>
  </g>

  <rect width="2400" height="1200" fill="#0e342b" opacity="0.08"/>
</svg>
